<?xml version="1.0" encoding="UTF-8" standalone="no"?>
<!-- Generator: Adobe Illustrator 15.1.0, SVG Export Plug-In . SVG Version: 6.00 Build 0)  -->

<svg
   xmlns:dc="http://purl.org/dc/elements/1.1/"
   xmlns:cc="http://creativecommons.org/ns#"
   xmlns:rdf="http://www.w3.org/1999/02/22-rdf-syntax-ns#"
   xmlns:svg="http://www.w3.org/2000/svg"
   xmlns="http://www.w3.org/2000/svg"
   xmlns:sodipodi="http://sodipodi.sourceforge.net/DTD/sodipodi-0.dtd"
   xmlns:inkscape="http://www.inkscape.org/namespaces/inkscape"
   version="1.1"
   id="Layer_1"
   x="0px"
   y="0px"
   width="7.5264678in"
   height="1.5241963in"
   viewBox="0 0 677.38215 137.17766"
   enable-background="new 0 0 1024 1024"
   xml:space="preserve"
   inkscape:version="0.92.3 (2405546, 2018-03-11)"
   sodipodi:docname="cmu-db-group.svg"
   inkscape:export-filename="/home/pavlo/Dropbox/The Habitat/NewSQL/cmu-db-group.png"
   inkscape:export-xdpi="58.270309"
   inkscape:export-ydpi="58.270309"><metadata
     id="metadata3066"><rdf:RDF><cc:Work
         rdf:about=""><dc:format>image/svg+xml</dc:format><dc:type
           rdf:resource="http://purl.org/dc/dcmitype/StillImage" /><dc:title></dc:title></cc:Work></rdf:RDF></metadata><defs
     id="defs3064" /><sodipodi:namedview
     pagecolor="#ffffff"
     bordercolor="#666666"
     borderopacity="1"
     objecttolerance="10"
     gridtolerance="10"
     guidetolerance="10"
     inkscape:pageopacity="0"
     inkscape:pageshadow="2"
     inkscape:window-width="1976"
     inkscape:window-height="1123"
     id="namedview3062"
     showgrid="false"
     inkscape:zoom="2.8284273"
     inkscape:cx="79.215375"
     inkscape:cy="104.86479"
     inkscape:window-x="0"
     inkscape:window-y="0"
     inkscape:window-maximized="1"
     inkscape:current-layer="Layer_1"
     fit-margin-top="0"
     fit-margin-left="0"
     fit-margin-right="0"
     fit-margin-bottom="0"
     units="in"
     showguides="true"
     inkscape:guide-bbox="true"><sodipodi:guide
       position="155.26345,84.324114"
       orientation="1,0"
       id="guide1199"
       inkscape:locked="false" /><sodipodi:guide
       position="247.28041,111.69578"
       orientation="1,0"
       id="guide1201"
       inkscape:locked="false" /><sodipodi:guide
       position="612.71007,6.6834401"
       orientation="0,1"
       id="guide979"
       inkscape:locked="false" /><sodipodi:guide
       position="608.84256,35.448348"
       orientation="0,1"
       id="guide1001"
       inkscape:locked="false" /><sodipodi:guide
       position="697.92338,59.750106"
       orientation="1,0"
       id="guide1003"
       inkscape:locked="false" /></sodipodi:namedview><path
     style="fill:#ffffff;fill-opacity:1;stroke-width:1.68487513"
     d="m 609.01447,6.2672529 c -5.44847,0 -9.87123,4.6303371 -9.87121,10.3216561 v 52.760011 8.188482 0.32043 3.14941 0.32044 6.90125 3.47167 c 0,5.51418 4.27212,10.026858 9.49219,10.026858 h 1.35681 c 4.91424,0 8.89708,-4.209738 8.8971,-9.398808 v -3.47167 -7.84974 -3.46984 h -0.004 V 76.087206 72.617349 69.34892 55.189374 24.771893 h 7.09167 14.46351 c 12.08344,0 16.85303,6.760576 16.85303,17.435303 0,10.848716 -5.61732,17.42981 -16.85303,17.42981 h -6.28601 c -4.36585,-0.0017 -7.92599,3.583071 -8.15003,8.095093 -0.0119,0.135834 -0.0161,0.271533 -0.022,0.408325 -0.006,0.144734 -0.017,0.290218 -0.0165,0.435791 0.0194,4.70435 3.67383,8.505153 8.172,8.503419 h 6.28601 c 11.23572,0 16.85302,6.581098 16.85302,17.429818 0,10.674718 -4.76957,17.435288 -16.85302,17.435288 h -18.57239 v -0.002 l -9.02893,0.033 v -0.002 l -5.90149,0.0202 h -0.0549 c -4.27644,0.0143 -7.73804,3.64214 -7.73804,8.11157 0,5.7033 4.43438,10.33813 9.89136,10.33813 h 3.76465 0.0385 7.13012 1.89698 18.57788 c 24.5095,0 36.93785,-14.23307 36.93787,-35.934438 0,-11.89211 -3.65071,-20.639106 -12.7295,-26.14564 9.0919,-5.505894 12.74597,-14.256725 12.74597,-26.156616 0,-21.701375 -12.42836,-35.9344491 -36.93786,-35.9344491 h -14.46717 v -0.0055 z"
     id="path3040-6-7"
     inkscape:connector-curvature="0" /><path
     style="fill:#cccccc;stroke-width:0.74673057"
     inkscape:connector-curvature="0"
     id="path3048"
     d="m 65.253647,49.238517 c 0,-6.086601 -4.769368,-11.086709 -10.848501,-11.385401 C 23.606991,36.338747 0.13874254,28.485381 0.13874254,19.023558 v 24.671978 c 0,9.263939 22.49675146,16.98588 52.34282546,18.726509 3.314737,0.193403 6.561521,-0.989418 8.977195,-3.266946 2.41642,-2.276782 3.795631,-5.451133 3.795631,-8.771844 v -1.144738 z" /><path
     style="fill:#cccccc;stroke-width:0.74673057"
     inkscape:connector-curvature="0"
     id="path3050"
     d="m 87.660791,47.346302 c 0.06273,3.58132 1.714494,6.949074 4.507266,9.191506 2.792772,2.242432 6.437564,3.125814 9.948693,2.417167 17.06503,-3.442428 28.25255,-9.208681 28.25255,-15.742574 V 18.540424 c 0,7.079752 -13.14022,13.260441 -32.660502,16.557256 -5.876023,0.992405 -10.155536,6.129165 -10.050994,12.088075 z" /><path
     style="fill:#cccccc;stroke-width:0.74673057"
     inkscape:connector-curvature="0"
     id="path3052"
     d="m 50.602794,86.777409 c 7.47e-4,-3.217662 1.28811,-6.300912 3.573852,-8.564253 2.286489,-2.264087 5.382434,-3.520088 8.599349,-3.490218 0.69222,0.0067 1.386679,0.0097 2.084872,0.0097 35.964033,0 65.116403,-8.547078 65.116403,-19.0939 v 24.671231 c 0,10.546822 -29.15311,19.094647 -65.116403,19.094647 -0.777346,0 -1.551706,-0.0045 -2.322332,-0.01195 C 55.926983,99.323976 50.6013,93.944529 50.603541,87.33223 Z" /><path
     style="fill:#cccccc;stroke-width:0.74673057"
     inkscape:connector-curvature="0"
     id="path3054"
     d="m 65.253647,124.61051 c 0,-6.41367 -5.019522,-11.71023 -11.42423,-12.04252 C 23.315766,110.98492 0.13948927,103.17039 0.13948927,93.767554 v 24.671226 c 0,9.24826 22.41909173,16.9605 52.18899873,18.71755 3.353567,0.19863 6.638435,-0.99688 9.083977,-3.2998 2.445543,-2.30292 3.841182,-5.5146 3.841182,-8.8734 z" /><path
     style="fill:#cccccc;stroke-width:0.74673057"
     inkscape:connector-curvature="0"
     id="path3056"
     d="m 87.658551,122.41438 c -0.105289,-5.97011 4.16377,-11.09567 10.050993,-12.08957 19.520286,-3.29756 32.660506,-9.4775 32.660506,-16.558003 v 24.671973 c 0,6.51523 -11.12554,12.26729 -28.10918,15.71196 -3.542493,0.7191 -7.220141,-0.17548 -10.039795,-2.43733 -2.819655,-2.26184 -4.499052,-5.66171 -4.562524,-9.27588 z" /><path
     style="fill:none;stroke:#cccccc;stroke-width:4.35911465;stroke-miterlimit:10;stroke-opacity:1"
     inkscape:connector-curvature="0"
     id="path3058"
     d="M 35.47702,38.248883 C 15.658044,35.018527 2.1795572,28.660863 2.1795572,21.345144 c 0,-10.586399 28.2234278,-19.1655868 63.0389938,-19.1655868 34.817059,0 63.041239,8.5791878 63.041239,19.1655868 0,5.744598 -7.62487,10.90824 -20.38426,14.205055"
     stroke-miterlimit="10" /><path
     style="fill:#cccccc;stroke-width:0.74673057"
     inkscape:connector-curvature="0"
     id="path3060"
     d="m 32.572238,82.718928 c 0.0037,3.760536 -1.789167,7.296305 -4.824626,9.516335 -3.036207,2.219283 -6.950569,2.855497 -10.532635,1.710759 C 6.5845207,90.546905 0.0961789,86.016491 0.0961789,81.041772 V 56.36606 c 0,5.877516 9.054108,11.1345 23.2942601,14.637413 5.38094,1.323206 9.175825,6.147086 9.181799,11.687826 z" /><path
     d="m 159.61375,68.671757 c 0,-39.177898 18.04601,-58.022236 47.71896,-58.022236 14.52955,0 27.22412,6.771979 34.41381,17.521036 0.76402,1.160985 1.0709,2.31849 1.0709,3.468895 0,2.978395 -2.14186,5.286305 -4.89756,5.286305 -1.3746,0 -2.75246,-0.494035 -3.97687,-2.142043 -5.20124,-7.770663 -15.14339,-13.886271 -26.61354,-13.886271 -23.55425,0 -37.01284,15.368411 -37.01284,47.774314 0,34.382093 13.4619,47.608453 37.01284,47.608453 10.09556,0 20.64827,-4.29466 26.61354,-13.55804 1.07096,-1.65505 2.75246,-2.14208 3.97687,-2.14208 2.75243,0 4.89756,2.30793 4.89756,5.2863 0,1.3163 -0.30688,2.14914 -0.91745,3.14428 -6.73257,10.57612 -20.49483,17.51747 -34.56726,17.51747 -29.67295,0 -47.71896,-17.18929 -47.71896,-57.856383 z"
     id="path2990"
     inkscape:connector-curvature="0"
     style="fill:#ffffff;fill-opacity:1;stroke:#ffffff;stroke-width:8.94000053;stroke-miterlimit:4;stroke-dasharray:none;stroke-opacity:1" /><path
     d="M 300.51722,103.85713 271.97374,38.289928 v 82.932352 c 0,3.03332 -2.04652,5.55209 -4.50701,5.55209 -2.45468,0 -4.50412,-2.51877 -4.50412,-5.55209 V 16.207459 c 0,-3.0369 2.04944,-5.562856 4.50412,-5.562856 2.05235,0 3.41671,1.514831 4.09886,3.198807 l 33.0505,76.358392 33.1788,-76.358392 c 0.55097,-1.173029 1.63839,-3.198807 4.09889,-3.198807 2.46048,0 4.50991,2.525956 4.50991,5.562856 V 121.22228 c 0,3.03332 -2.04943,5.55209 -4.50991,5.55209 -2.4605,0 -4.50412,-2.51877 -4.50412,-5.55209 V 38.289928 l -28.67759,65.567202 c -0.95914,2.19495 -2.46049,3.20964 -4.09598,3.20964 -1.36434,0 -3.14265,-0.84917 -4.09887,-3.20964 z"
     id="path3006"
     inkscape:connector-curvature="0"
     style="fill:#ffffff;fill-opacity:1;stroke:#ffffff;stroke-width:8.530406;stroke-miterlimit:4;stroke-dasharray:none;stroke-opacity:1" /><path
     d="m 532.35144,112.51708 c 21.79008,0 34.89746,-10.82514 34.89746,-43.292071 0,-32.466922 -13.10738,-43.47877 -34.89746,-43.47877 H 519.24407 V 60.72531 91.976492 c 0,5.38496 -3.9833,9.753618 -8.89757,9.753618 h -1.35682 c -5.22007,0 -9.4918,-4.682678 -9.4918,-10.404998 V 60.479161 17.161669 c 0,-5.970597 4.42657,-10.8230261 9.87504,-10.8230261 h 22.98047 c 33.87548,0 55.32494,16.7957361 55.32494,62.8884961 0,46.092741 -21.44946,62.699631 -55.32494,62.699631 h -22.98047 c -5.44847,0 -9.87504,-4.85242 -9.87504,-10.82512 0,-4.68056 3.45492,-8.4806 7.72468,-8.49547 l 25.12888,-0.089 z"
     id="path3018"
     inkscape:connector-curvature="0"
     style="fill:#ffffff;fill-opacity:1;stroke-width:1.69404125" /><path
     d="M 362.07874,89.029172 V 16.746236 c 0,-5.738904 4.42274,-10.4030551 9.87496,-10.4030551 5.44665,0 9.87513,4.6621061 9.87513,10.4030551 v 72.282936 c 0,10.93941 3.9117,23.673538 23.14692,23.673538 19.23712,0 23.15089,-12.734128 23.15089,-23.673538 V 16.746236 c 0,-5.738904 4.42635,-10.4030551 9.87477,-10.4030551 5.44859,0 9.87526,4.6621061 9.87526,10.4030551 v 72.282936 c 0,20.447158 -8.51259,41.969098 -42.89914,41.969098 -34.38635,0 -42.89879,-21.52194 -42.89879,-41.969098 z"
     id="path3032"
     inkscape:connector-curvature="0"
     style="fill:#ffffff;fill-opacity:1;stroke-width:1.66084909" /><g
     id="g1114"
     transform="matrix(0.86741605,0,0,0.88792995,-32.287889,-14.804995)"
     style="fill:#3c3c3c;fill-opacity:1;stroke:#ffffff;stroke-opacity:1"><path
       id="path3008-3"
       transform="scale(0.9375)"
       d="m 616.89648,94.025391 c -3.2,0 -5.83398,2.781436 -5.83398,6.160159 0,3.37443 2.63398,6.15039 5.83398,6.15039 h 4.97071 V 94.025391 Z"
       style="fill:#3c3c3c;fill-opacity:1;stroke:#ffffff;stroke-width:13.03938866;stroke-miterlimit:4;stroke-dasharray:none;stroke-opacity:1"
       inkscape:connector-curvature="0" /><path
       id="path3008-3-7"
       d="m 588.28585,99.689939 c 2.99999,0 5.46935,-2.607592 5.46935,-5.775144 0,-3.163528 -2.46936,-5.765991 -5.46935,-5.765991 h -4.66005 v 11.541135 z"
       style="fill:#3c3c3c;fill-opacity:1;stroke:#ffffff;stroke-width:12.22442722;stroke-miterlimit:4;stroke-dasharray:none;stroke-opacity:1"
       inkscape:connector-curvature="0" /></g></svg>