<?xml version="1.0" encoding="UTF-8" standalone="no"?>
<!-- Generator: Adobe Illustrator 15.1.0, SVG Export Plug-In . SVG Version: 6.00 Build 0)  -->

<svg
   xmlns:dc="http://purl.org/dc/elements/1.1/"
   xmlns:cc="http://creativecommons.org/ns#"
   xmlns:rdf="http://www.w3.org/1999/02/22-rdf-syntax-ns#"
   xmlns:svg="http://www.w3.org/2000/svg"
   xmlns="http://www.w3.org/2000/svg"
   xmlns:sodipodi="http://sodipodi.sourceforge.net/DTD/sodipodi-0.dtd"
   xmlns:inkscape="http://www.inkscape.org/namespaces/inkscape"
   version="1.1"
   id="Layer_1"
   x="0px"
   y="0px"
   width="7.943253in"
   height="2.0411596in"
   viewBox="0 0 714.89282 183.70436"
   enable-background="new 0 0 1024 1024"
   xml:space="preserve"
   inkscape:version="0.92.3 (2405546, 2018-03-11)"
   sodipodi:docname="cmu-db-sticker.svg"
   inkscape:export-filename="/home/pavlo/Dropbox/The Habitat/NewSQL/cmu-db-group.png"
   inkscape:export-xdpi="58.270309"
   inkscape:export-ydpi="58.270309"><metadata
     id="metadata3066"><rdf:RDF><cc:Work
         rdf:about=""><dc:format>image/svg+xml</dc:format><dc:type
           rdf:resource="http://purl.org/dc/dcmitype/StillImage" /><dc:title></dc:title></cc:Work></rdf:RDF></metadata><defs
     id="defs3064" /><sodipodi:namedview
     pagecolor="#ffffff"
     bordercolor="#666666"
     borderopacity="1"
     objecttolerance="10"
     gridtolerance="10"
     guidetolerance="10"
     inkscape:pageopacity="0"
     inkscape:pageshadow="2"
     inkscape:window-width="2478"
     inkscape:window-height="1409"
     id="namedview3062"
     showgrid="false"
     inkscape:zoom="1"
     inkscape:cx="636.38345"
     inkscape:cy="142.53261"
     inkscape:window-x="0"
     inkscape:window-y="0"
     inkscape:window-maximized="1"
     inkscape:current-layer="Layer_1"
     fit-margin-top="0"
     fit-margin-left="0"
     fit-margin-right="0"
     fit-margin-bottom="0"
     units="in"
     showguides="true"
     inkscape:guide-bbox="true"><sodipodi:guide
       position="190.50908,108.05179"
       orientation="1,0"
       id="guide1199"
       inkscape:locked="false" /><sodipodi:guide
       position="282.52603,135.42346"
       orientation="1,0"
       id="guide1201"
       inkscape:locked="false" /><sodipodi:guide
       position="274.85757,154.19761"
       orientation="0,1"
       id="guide1218"
       inkscape:locked="false" /></sodipodi:namedview><path
     d="m 644.24555,153.29895 c -5.44657,0 -9.87116,-4.80215 -9.87116,-10.70411 V 39.776592 c 0,-5.90616 4.42267,-10.71043 9.87116,-10.71043 h 30.64125 c 25.70373,0 34.89746,15.13899 34.89746,32.12286 0,12.18377 -5.6169,21.4145 -12.59444,25.10427 12.76089,5.352075 17.70228,15.321578 17.70228,29.715488 0,22.52059 -12.42799,37.29017 -36.9375,37.29017 z m 19.24684,-64.203693 c -0.009,-2.453535 0.88261,-4.810545 2.4794,-6.548395 1.59681,-1.73783 3.76652,-2.7138 6.02915,-2.7138 h 2.88394 c 10.72471,0 15.14932,-6.64497 15.14932,-15.87569 0,-9.5959 -4.42461,-15.68885 -15.14932,-15.68885 h -20.76623 v 31.56454 18.087825 36.182013 h 23.83209 c 12.08346,0 16.85258,-7.01643 16.85258,-18.09412 0,-11.25823 -5.61686,-18.087893 -16.85258,-18.087893 h -6.28659 c -4.49815,0.002 -8.1524,-3.94371 -8.17176,-8.82563 z"
     id="path3040-3"
     inkscape:connector-curvature="0"
     style="fill:#282828;fill-opacity:1;stroke-width:1.68487525" /><g
     id="g1237"><path
       d="m 87.3858,65.9388 c 0,-8.151 -6.387,-14.847 -14.528,-15.247 -41.244,-2.028 -72.672,-12.545 -72.672,-25.216 v 33.04 c 0,12.406 30.127,22.747 70.096,25.078 4.439,0.259 8.787,-1.325 12.022,-4.375 3.236,-3.049 5.083,-7.3 5.083,-11.747 v -1.533 z"
       id="path3048"
       inkscape:connector-curvature="0"
       style="fill:#800000" /><path
       d="m 117.3928,63.4048 c 0.084,4.796 2.296,9.306 6.036,12.309 3.74,3.003 8.621,4.186 13.323,3.237 22.853,-4.61 37.835,-12.332 37.835,-21.082 v -33.04 c 0,9.481 -17.597,17.758 -43.738,22.173 -7.869,1.329 -13.6,8.208 -13.46,16.188 z"
       id="path3050"
       inkscape:connector-curvature="0"
       style="fill:#800000" /><path
       d="m 67.7658,116.2098 c 0.001,-4.309 1.725,-8.438 4.786,-11.469 3.062,-3.032 7.208,-4.714 11.516,-4.674 0.927,0.009 1.857,0.013 2.792,0.013 48.162,0 87.202,-11.446 87.202,-25.57 v 33.039 c 0,14.124 -39.041,25.571 -87.202,25.571 -1.041,0 -2.078,-0.006 -3.11,-0.016 -8.854,-0.092 -15.986,-7.296 -15.983,-16.151 z"
       id="path3052"
       inkscape:connector-curvature="0"
       style="fill:#800000" /><path
       d="m 87.3858,166.8748 c 0,-8.589 -6.722,-15.682 -15.299,-16.127 -40.863,-2.12 -71.9,-12.585 -71.9,-25.177 v 33.039 c 0,12.385 30.023,22.713 69.89,25.066 4.491,0.266 8.89,-1.335 12.165,-4.419 3.275,-3.084 5.144,-7.385 5.144,-11.883 z"
       id="path3054"
       inkscape:connector-curvature="0"
       style="fill:#800000" /><path
       d="m 117.3898,163.9338 c -0.141,-7.995 5.576,-14.859 13.46,-16.19 26.141,-4.416 43.738,-12.692 43.738,-22.174 v 33.04 c 0,8.725 -14.899,16.428 -37.643,21.041 -4.744,0.963 -9.669,-0.235 -13.445,-3.264 -3.776,-3.029 -6.025,-7.582 -6.11,-12.422 z"
       id="path3056"
       inkscape:connector-curvature="0"
       style="fill:#800000" /><path
       stroke-miterlimit="10"
       d="m 47.5098,51.2218 c -26.541,-4.326 -44.591,-12.84 -44.591,-22.637 0,-14.177 37.796,-25.666 84.42,-25.666 46.626,0 84.423,11.489 84.423,25.666 0,7.693 -10.211,14.608 -27.298,19.023"
       id="path3058"
       inkscape:connector-curvature="0"
       style="fill:none;stroke:#800000;stroke-width:5.83760023;stroke-miterlimit:10;stroke-opacity:1" /><path
       d="m 43.6198,110.7748 c 0.005,5.036 -2.396,9.771 -6.461,12.744 -4.066,2.972 -9.308,3.824 -14.105,2.291 -14.236,-4.552 -22.925,-10.619 -22.925,-17.281 v -33.045 c 0,7.871 12.125,14.911 31.195,19.602 7.206,1.772 12.288,8.232 12.296,15.652 z"
       id="path3060"
       inkscape:connector-curvature="0"
       style="fill:#800000" /></g><path
     d="m 194.85938,91.470795 c 0,-39.177898 18.04601,-58.022236 47.71896,-58.022236 14.52955,0 27.22412,6.771979 34.41381,17.521036 0.76402,1.160985 1.0709,2.31849 1.0709,3.468895 0,2.978395 -2.14186,5.286305 -4.89756,5.286305 -1.3746,0 -2.75246,-0.494035 -3.97687,-2.142043 -5.20124,-7.770663 -15.14339,-13.886271 -26.61354,-13.886271 -23.55425,0 -37.01284,15.368411 -37.01284,47.774314 0,34.382095 13.4619,47.608455 37.01284,47.608455 10.09556,0 20.64827,-4.29466 26.61354,-13.55804 1.07096,-1.65505 2.75246,-2.14208 3.97687,-2.14208 2.75243,0 4.89756,2.30793 4.89756,5.2863 0,1.3163 -0.30688,2.14914 -0.91745,3.14428 -6.73257,10.57612 -20.49483,17.51747 -34.56726,17.51747 -29.67295,0 -47.71896,-17.18929 -47.71896,-57.856385 z"
     id="path2990"
     inkscape:connector-curvature="0"
     style="fill:#282828;fill-opacity:1;stroke:#282828;stroke-width:8.94000053;stroke-miterlimit:4;stroke-dasharray:none;stroke-opacity:1" /><path
     d="M 335.76285,126.65617 307.21937,61.088966 v 82.932354 c 0,3.03332 -2.04652,5.55209 -4.50701,5.55209 -2.45468,0 -4.50412,-2.51877 -4.50412,-5.55209 V 39.006497 c 0,-3.0369 2.04944,-5.562856 4.50412,-5.562856 2.05235,0 3.41671,1.514831 4.09886,3.198807 l 33.0505,76.358392 33.1788,-76.358392 c 0.55097,-1.173029 1.63839,-3.198807 4.09889,-3.198807 2.46048,0 4.50991,2.525956 4.50991,5.562856 V 144.02132 c 0,3.03332 -2.04943,5.55209 -4.50991,5.55209 -2.4605,0 -4.50412,-2.51877 -4.50412,-5.55209 V 61.088966 L 343.9577,126.65617 c -0.95914,2.19495 -2.46049,3.20964 -4.09598,3.20964 -1.36434,0 -3.14265,-0.84917 -4.09887,-3.20964 z"
     id="path3006"
     inkscape:connector-curvature="0"
     style="fill:#282828;fill-opacity:1;stroke:#282828;stroke-width:8.530406;stroke-miterlimit:4;stroke-dasharray:none;stroke-opacity:1" /><path
     d="m 567.59707,135.31612 c 21.79008,0 34.89746,-10.82514 34.89746,-43.292073 0,-32.466922 -13.10738,-43.47877 -34.89746,-43.47877 H 554.4897 v 34.979071 31.251182 c 0,5.38496 -3.9833,9.75362 -8.89757,9.75362 h -1.35682 c -5.22007,0 -9.4918,-4.68268 -9.4918,-10.405 V 83.278199 39.960707 c 0,-5.970597 4.42657,-10.823026 9.87504,-10.823026 h 22.98047 c 33.87548,0 55.32494,16.795736 55.32494,62.888496 0,46.092743 -21.44946,62.699633 -55.32494,62.699633 h -22.98047 c -5.44847,0 -9.87504,-4.85242 -9.87504,-10.82512 0,-4.68056 3.45492,-8.4806 7.72468,-8.49547 l 25.12888,-0.089 z"
     id="path3018"
     inkscape:connector-curvature="0"
     style="fill:#282828;fill-opacity:1;stroke-width:1.69404125" /><path
     d="M 397.32437,111.82821 V 39.545274 c 0,-5.738904 4.42274,-10.403055 9.87496,-10.403055 5.44665,0 9.87513,4.662106 9.87513,10.403055 v 72.282936 c 0,10.93941 3.9117,23.67354 23.14692,23.67354 19.23712,0 23.15089,-12.73413 23.15089,-23.67354 V 39.545274 c 0,-5.738904 4.42635,-10.403055 9.87477,-10.403055 5.44859,0 9.87526,4.662106 9.87526,10.403055 v 72.282936 c 0,20.44716 -8.51259,41.9691 -42.89914,41.9691 -34.38635,0 -42.89879,-21.52194 -42.89879,-41.9691 z"
     id="path3032"
     inkscape:connector-curvature="0"
     style="fill:#282828;fill-opacity:1;stroke-width:1.66084909" /><g
     id="g1114"
     transform="matrix(0.86741605,0,0,0.88792995,2.9577378,7.9940429)"
     style="fill:#282828;fill-opacity:1"><path
       id="path3008-3"
       transform="scale(0.9375)"
       d="m 616.89648,94.025391 c -3.2,0 -5.83398,2.781436 -5.83398,6.160159 0,3.37443 2.63398,6.15039 5.83398,6.15039 h 4.97071 V 94.025391 Z"
       style="fill:#282828;fill-opacity:1;stroke:#282828;stroke-width:13.03938866;stroke-miterlimit:4;stroke-dasharray:none;stroke-opacity:1"
       inkscape:connector-curvature="0" /><path
       id="path3008-3-7"
       d="m 588.28585,99.689939 c 2.99999,0 5.46935,-2.607592 5.46935,-5.775144 0,-3.163528 -2.46936,-5.765991 -5.46935,-5.765991 h -4.66005 v 11.541135 z"
       style="fill:#282828;fill-opacity:1;stroke:#282828;stroke-width:12.22442722;stroke-miterlimit:4;stroke-dasharray:none;stroke-opacity:1"
       inkscape:connector-curvature="0" /></g></svg>